<svg width="243" height="43" viewBox="0 0 243 43" fill="none" xmlns="http://www.w3.org/2000/svg">
<g clip-path="url(#clip0_31_1185)">
<path d="M28 0C34.6274 0 40 5.37258 40 12V28C40 34.6274 34.6274 40 28 40H14V30H28C29.1046 30 30 29.1046 30 28V12C30 10.8954 29.1046 10 28 10H27.8994C27.369 10 26.8604 10.2109 26.4854 10.5859L10.5859 26.4854C10.2109 26.8604 10 27.369 10 27.8994V40H0V27.8994C2.15312e-05 24.7168 1.26423 21.6645 3.51465 19.4141L19.4141 3.51465C21.6645 1.26423 24.7168 2.1373e-05 27.8994 0H28Z" fill="#FF4D00"/>
</g>
<path d="M58.2 34V6.8H78.08V12.56H65.52V18.36H76.48V24.08H65.52V34H58.2ZM95.0897 24.68V12.36H102.05V34H95.0897V31.16C93.7297 33.6 91.6097 34.72 89.0897 34.72C85.0897 34.72 81.9697 32.24 81.9697 26.76V12.36H88.8897V25.36C88.8897 27.96 89.8497 29.12 91.7297 29.12C93.7297 29.12 95.0897 27.36 95.0897 24.68ZM127.801 26.88C126.681 31.84 122.561 34.72 117.081 34.72C110.281 34.72 106.001 30.32 106.001 23.2C106.001 15.84 110.321 11.64 116.841 11.64C123.481 11.64 127.641 16 127.641 23.12V24.64H113.161C113.481 27.64 114.841 29.24 117.081 29.24C118.841 29.24 119.921 28.52 120.521 26.88H127.801ZM116.841 17.12C114.921 17.12 113.721 18.4 113.281 20.84H120.441C120.001 18.4 118.761 17.12 116.841 17.12ZM131.713 34V5.2H138.633V34H131.713Z" fill="white"/>
<path d="M150.419 13.88C150.419 19.12 166.219 14.56 166.219 25.64C166.219 31.36 161.419 34.72 154.899 34.72C148.299 34.72 143.459 31.64 142.579 25.24H150.259C150.659 27.72 152.419 29.08 154.979 29.08C157.459 29.08 158.739 28.12 158.739 26.56C158.739 21.16 142.939 25.28 142.939 14.64C142.939 9.84 146.859 6.08 153.819 6.08C159.579 6.08 164.659 8.84 165.459 15.28H157.659C157.219 12.88 155.859 11.72 153.499 11.72C151.659 11.72 150.419 12.56 150.419 13.88ZM170.207 34V5.2H177.127V15.28C178.527 12.8 180.687 11.64 183.287 11.64C187.327 11.64 190.527 14.12 190.527 19.6V34H183.567V21C183.567 18.4 182.567 17.24 180.647 17.24C178.527 17.24 177.127 19 177.127 21.68V34H170.207ZM202.232 19.56H195.272C195.952 14.68 199.872 11.64 205.472 11.64C211.792 11.64 215.112 15.36 215.112 20.36V28.6C215.112 31.48 215.392 32.92 215.672 34H208.552C208.352 33.36 208.272 32.52 208.192 31.56C206.552 33.76 204.072 34.72 201.552 34.72C197.592 34.72 194.512 32.6 194.512 28.44C194.512 25.52 196.192 23.24 199.712 22.04C202.472 21.08 205.072 20.84 208.152 20.8V20.28C208.152 18.24 207.152 17.24 205.192 17.24C203.432 17.24 202.472 18.2 202.232 19.56ZM201.432 27.92C201.432 29.2 202.352 30.08 203.952 30.08C206.232 30.08 208.152 28.12 208.152 25.4V24.6C202.832 24.76 201.432 26.16 201.432 27.92ZM227.105 42.84H220.185V12.36H227.105V14.52C228.385 12.64 230.225 11.64 232.385 11.64C237.905 11.64 241.385 16.08 241.385 23.16C241.385 30.52 237.825 34.72 232.385 34.72C230.185 34.72 228.385 33.76 227.105 31.96V42.84ZM230.705 17.24C228.345 17.24 227.105 19.32 227.105 23.16C227.105 27.04 228.385 29.12 230.705 29.12C233.025 29.12 234.265 27.04 234.265 23.16C234.265 19.32 233.025 17.24 230.705 17.24Z" fill="#FF4D00"/>
<defs>
<clipPath id="clip0_31_1185">
<rect width="40" height="40" fill="white"/>
</clipPath>
</defs>
</svg>
