<svg width="233" height="40" viewBox="0 0 233 40" fill="none" xmlns="http://www.w3.org/2000/svg">
<g clip-path="url(#clip0_31_1185)">
<path d="M28 0C34.6274 0 40 5.37258 40 12V28C40 34.6274 34.6274 40 28 40H14V30H28C29.1046 30 30 29.1046 30 28V12C30 10.8954 29.1046 10 28 10H27.8994C27.369 10 26.8604 10.2109 26.4854 10.5859L10.5859 26.4854C10.2109 26.8604 10 27.369 10 27.8994V40H0V27.8994C2.15312e-05 24.7168 1.26423 21.6645 3.51465 19.4141L19.4141 3.51465C21.6645 1.26423 24.7168 2.1373e-05 27.8994 0H28Z" fill="#FF4D00"/>
</g>
<path d="M58.2 34V6.8H69.24C76.16 6.8 80.36 10.24 80.36 16.12C80.36 22.04 76.08 25.44 69.32 25.44H65.52V34H58.2ZM69.12 12.56H65.52V19.68H68.92C71.72 19.68 72.88 18.24 72.88 16.12C72.88 13.96 71.64 12.56 69.12 12.56ZM105.429 26.88C104.309 31.84 100.189 34.72 94.7088 34.72C87.9088 34.72 83.6288 30.32 83.6288 23.2C83.6288 15.84 87.9488 11.64 94.4688 11.64C101.109 11.64 105.269 16 105.269 23.12V24.64H90.7888C91.1088 27.64 92.4688 29.24 94.7088 29.24C96.4688 29.24 97.5488 28.52 98.1488 26.88H105.429ZM94.4688 17.12C92.5488 17.12 91.3488 18.4 90.9088 20.84H98.0688C97.6288 18.4 96.3888 17.12 94.4688 17.12ZM110.222 26.72V17.64H107.742V12.36H110.222V7.36H117.182V12.36H121.502V17.64H117.182V25.72C117.182 27.68 117.662 28.8 120.182 28.8H121.462V34.04C120.702 34.4 119.222 34.72 117.382 34.72C112.582 34.72 110.222 31.88 110.222 26.72ZM125.307 34V12.36H132.227V15.32C133.547 12.76 135.587 11.64 137.667 11.64C138.587 11.64 139.427 11.88 139.827 12.36V18.2C139.067 18.04 138.347 17.96 137.347 17.96C133.867 17.96 132.227 19.88 132.227 23.12V34H125.307ZM152.874 34.72C146.194 34.72 141.994 30.32 141.994 23.2C141.994 15.84 146.314 11.64 152.874 11.64C159.514 11.64 163.714 16.08 163.714 23.2C163.714 30.52 159.394 34.72 152.874 34.72ZM152.874 29.12C155.314 29.12 156.594 27.08 156.594 23.2C156.594 19.32 155.314 17.24 152.874 17.24C150.434 17.24 149.114 19.32 149.114 23.2C149.114 27.04 150.434 29.12 152.874 29.12ZM167.707 34V5.2H174.627V34H167.707Z" fill="white"/>
<path d="M186.413 13.88C186.413 19.12 202.213 14.56 202.213 25.64C202.213 31.36 197.413 34.72 190.893 34.72C184.293 34.72 179.453 31.64 178.573 25.24H186.253C186.653 27.72 188.413 29.08 190.973 29.08C193.453 29.08 194.733 28.12 194.733 26.56C194.733 21.16 178.933 25.28 178.933 14.64C178.933 9.84 182.853 6.08 189.813 6.08C195.573 6.08 200.653 8.84 201.453 15.28H193.653C193.213 12.88 191.853 11.72 189.493 11.72C187.653 11.72 186.413 12.56 186.413 13.88ZM224.842 34L223.282 29.36H213.402L211.842 34H204.482L214.202 6.8H222.922L232.642 34H224.842ZM217.522 17.24L215.282 23.84H221.442L219.202 17.24L218.362 14.08L217.522 17.24Z" fill="#FF4D00"/>
<defs>
<clipPath id="clip0_31_1185">
<rect width="40" height="40" fill="white"/>
</clipPath>
</defs>
</svg>
